# xmcd CD database file
#
# Track frame offsets:
#	150
#	18046
#	42258
#	60467
#	81316
#	98250
#	118921
#	140025
#	165406
#	185667
#	208598
#	222128
#	230416
#	251041
#	268101
#	291893
#	313644
#
# Disc length: 4298 seconds
#
# Revision: 0
# Processed by: cddbd v1.5.2PL0 Copyright (c) Steve Scherf et al.
# Submitted via: CDex 1.51
#
DISCID=f110c811
DTITLE=Various Artist - Best New Age [CD6)
DYEAR=2007
DGENRE=New Age
TTITLE0=Adiemus
TTITLE1=Age Of Loneliness
TTITLE2=Yeha-Noha
TTITLE3=Spicy Dream
TTITLE4=Alcazaba
TTITLE5=The Enchantment
TTITLE6=Si La Nieve
TTITLE7=Saphyrro
TTITLE8=Hidden World
TTITLE9=Inochi No Sharin
TTITLE10=Salve Regina
TTITLE11=Chorale I
TTITLE12=Parvaz
TTITLE13=Fault Lines
TTITLE14=Earth Sky
TTITLE15=Quiet 3
TTITLE16=If You Were Mine
EXTD=YEAR: 2007
EXTT0=
EXTT1=
EXTT2=
EXTT3=
EXTT4=
EXTT5=
EXTT6=
EXTT7=
EXTT8=
EXTT9=
EXTT10=
EXTT11=
EXTT12=
EXTT13=
EXTT14=
EXTT15=
EXTT16=
PLAYORDER=
